<mxfile host="app.diagrams.net" agent="Mozilla/5.0 (Macintosh; Intel Mac OS X 10_15_7) AppleWebKit/605.1.15 (KHTML, like Gecko) Version/18.5 Safari/605.1.15" version="27.2.0" pages="2">
  <diagram name="Pagina-1" id="QvH7E5pYF4uOzvIW_a2h">
    <mxGraphModel dx="693" dy="795" grid="1" gridSize="10" guides="1" tooltips="1" connect="1" arrows="1" fold="1" page="1" pageScale="1" pageWidth="827" pageHeight="1169" math="0" shadow="0">
      <root>
        <mxCell id="0" />
        <mxCell id="1" parent="0" />
        <mxCell id="B7uklT9XOEuCtpNH9jRa-2" value="Utente Candidato" style="shape=umlActor;verticalLabelPosition=bottom;verticalAlign=top;html=1;outlineConnect=0;" parent="1" vertex="1">
          <mxGeometry x="70" y="420" width="30" height="60" as="geometry" />
        </mxCell>
        <mxCell id="B7uklT9XOEuCtpNH9jRa-4" value="&lt;font style=&quot;font-size: 9px;&quot;&gt;inserimentoCompetenze&lt;/font&gt;" style="ellipse;whiteSpace=wrap;html=1;" parent="1" vertex="1">
          <mxGeometry x="160" y="355" width="130" height="25" as="geometry" />
        </mxCell>
        <mxCell id="B7uklT9XOEuCtpNH9jRa-5" value="&lt;font style=&quot;font-size: 9px;&quot;&gt;gestisciDiploma&lt;/font&gt;" style="ellipse;whiteSpace=wrap;html=1;" parent="1" vertex="1">
          <mxGeometry x="330" y="310" width="130" height="25" as="geometry" />
        </mxCell>
        <mxCell id="B7uklT9XOEuCtpNH9jRa-6" value="&lt;font style=&quot;font-size: 9px;&quot;&gt;gestisciLaurea&lt;/font&gt;" style="ellipse;whiteSpace=wrap;html=1;" parent="1" vertex="1">
          <mxGeometry x="330" y="347.5" width="130" height="25" as="geometry" />
        </mxCell>
        <mxCell id="B7uklT9XOEuCtpNH9jRa-7" value="&lt;font style=&quot;font-size: 9px;&quot;&gt;gestisciAttestato&lt;/font&gt;" style="ellipse;whiteSpace=wrap;html=1;" parent="1" vertex="1">
          <mxGeometry x="330" y="380" width="130" height="25" as="geometry" />
        </mxCell>
        <mxCell id="B7uklT9XOEuCtpNH9jRa-8" value="&lt;font style=&quot;font-size: 9px;&quot;&gt;inviaCandidatura&lt;/font&gt;" style="ellipse;whiteSpace=wrap;html=1;" parent="1" vertex="1">
          <mxGeometry x="160" y="420" width="130" height="25" as="geometry" />
        </mxCell>
        <mxCell id="B7uklT9XOEuCtpNH9jRa-9" value="&lt;font style=&quot;font-size: 9px;&quot;&gt;visualizzaCandidature&lt;/font&gt;" style="ellipse;whiteSpace=wrap;html=1;" parent="1" vertex="1">
          <mxGeometry x="160" y="460" width="130" height="25" as="geometry" />
        </mxCell>
        <mxCell id="B7uklT9XOEuCtpNH9jRa-10" value="&lt;font style=&quot;font-size: 9px;&quot;&gt;visualizzaDettagliColloquio&lt;/font&gt;" style="ellipse;whiteSpace=wrap;html=1;" parent="1" vertex="1">
          <mxGeometry x="330" y="460" width="130" height="25" as="geometry" />
        </mxCell>
        <mxCell id="B7uklT9XOEuCtpNH9jRa-11" value="&lt;font style=&quot;font-size: 9px;&quot;&gt;visualizzaValutazione&lt;/font&gt;" style="ellipse;whiteSpace=wrap;html=1;" parent="1" vertex="1">
          <mxGeometry x="330" y="500" width="130" height="25" as="geometry" />
        </mxCell>
        <mxCell id="B7uklT9XOEuCtpNH9jRa-12" value="&lt;font style=&quot;font-size: 9px;&quot;&gt;visualizzaOfferteCompatibili&lt;/font&gt;" style="ellipse;whiteSpace=wrap;html=1;" parent="1" vertex="1">
          <mxGeometry x="160" y="500" width="130" height="25" as="geometry" />
        </mxCell>
        <mxCell id="B7uklT9XOEuCtpNH9jRa-13" value="&lt;font style=&quot;font-size: 9px;&quot;&gt;loginCandidato&lt;/font&gt;" style="ellipse;whiteSpace=wrap;html=1;" parent="1" vertex="1">
          <mxGeometry x="160" y="540" width="130" height="25" as="geometry" />
        </mxCell>
        <mxCell id="B7uklT9XOEuCtpNH9jRa-14" value="&lt;font style=&quot;font-size: 9px;&quot;&gt;visualizzaPannelloNotifiche&lt;/font&gt;" style="ellipse;whiteSpace=wrap;html=1;" parent="1" vertex="1">
          <mxGeometry x="160" y="580" width="130" height="25" as="geometry" />
        </mxCell>
        <mxCell id="B7uklT9XOEuCtpNH9jRa-15" value="&lt;font style=&quot;font-size: 9px;&quot;&gt;aggiungiPortfolio&lt;/font&gt;" style="ellipse;whiteSpace=wrap;html=1;" parent="1" vertex="1">
          <mxGeometry x="160" y="620" width="130" height="25" as="geometry" />
        </mxCell>
        <mxCell id="B7uklT9XOEuCtpNH9jRa-16" value="&lt;font style=&quot;font-size: 9px;&quot;&gt;visualizzaProfiloAzienda&lt;/font&gt;" style="ellipse;whiteSpace=wrap;html=1;" parent="1" vertex="1">
          <mxGeometry x="330" y="420" width="130" height="25" as="geometry" />
        </mxCell>
        <mxCell id="B7uklT9XOEuCtpNH9jRa-17" value="" style="swimlane;startSize=0;" parent="1" vertex="1">
          <mxGeometry x="150" y="260" width="550" height="410" as="geometry" />
        </mxCell>
        <mxCell id="B7uklT9XOEuCtpNH9jRa-34" value="" style="endArrow=block;dashed=1;endFill=0;endSize=5;html=1;rounded=0;fontSize=12;curved=1;exitX=1;exitY=0.5;exitDx=0;exitDy=0;entryX=0;entryY=0.5;entryDx=0;entryDy=0;strokeWidth=1;" parent="B7uklT9XOEuCtpNH9jRa-17" edge="1">
          <mxGeometry width="160" relative="1" as="geometry">
            <mxPoint x="180" y="212.20999999999998" as="sourcePoint" />
            <mxPoint x="140" y="212.20999999999998" as="targetPoint" />
          </mxGeometry>
        </mxCell>
        <mxCell id="B7uklT9XOEuCtpNH9jRa-35" value="&lt;font style=&quot;font-size: 6px;&quot;&gt;&amp;lt;&amp;lt;extend&amp;gt;&amp;gt;&lt;/font&gt;" style="edgeLabel;html=1;align=center;verticalAlign=middle;resizable=0;points=[];fontSize=12;" parent="B7uklT9XOEuCtpNH9jRa-34" vertex="1" connectable="0">
          <mxGeometry x="-0.5167" y="2" relative="1" as="geometry">
            <mxPoint x="-10" y="-14" as="offset" />
          </mxGeometry>
        </mxCell>
        <mxCell id="B7uklT9XOEuCtpNH9jRa-51" value="&lt;font style=&quot;font-size: 9px;&quot;&gt;creaUtenteAziendale&lt;/font&gt;" style="ellipse;whiteSpace=wrap;html=1;" parent="B7uklT9XOEuCtpNH9jRa-17" vertex="1">
          <mxGeometry x="400" y="290" width="130" height="25" as="geometry" />
        </mxCell>
        <mxCell id="B7uklT9XOEuCtpNH9jRa-52" value="&lt;font style=&quot;font-size: 9px;&quot;&gt;gestioneUtentiAziendali&lt;/font&gt;" style="ellipse;whiteSpace=wrap;html=1;" parent="B7uklT9XOEuCtpNH9jRa-17" vertex="1">
          <mxGeometry x="400" y="320" width="130" height="25" as="geometry" />
        </mxCell>
        <mxCell id="B7uklT9XOEuCtpNH9jRa-53" value="&lt;font style=&quot;font-size: 9px;&quot;&gt;gestioneProfiloAziendale&lt;/font&gt;" style="ellipse;whiteSpace=wrap;html=1;" parent="B7uklT9XOEuCtpNH9jRa-17" vertex="1">
          <mxGeometry x="400" y="350" width="130" height="25" as="geometry" />
        </mxCell>
        <mxCell id="B7uklT9XOEuCtpNH9jRa-54" value="&lt;font style=&quot;font-size: 9px;&quot;&gt;registraAzienda&lt;/font&gt;" style="ellipse;whiteSpace=wrap;html=1;" parent="B7uklT9XOEuCtpNH9jRa-17" vertex="1">
          <mxGeometry x="400" y="380" width="130" height="25" as="geometry" />
        </mxCell>
        <mxCell id="B7uklT9XOEuCtpNH9jRa-55" value="&lt;font style=&quot;font-size: 9px;&quot;&gt;creazioneOfferta&lt;/font&gt;" style="ellipse;whiteSpace=wrap;html=1;" parent="B7uklT9XOEuCtpNH9jRa-17" vertex="1">
          <mxGeometry x="400" y="250" width="130" height="25" as="geometry" />
        </mxCell>
        <mxCell id="B7uklT9XOEuCtpNH9jRa-56" value="&lt;font style=&quot;font-size: 9px;&quot;&gt;gestioneColloqui&lt;/font&gt;" style="ellipse;whiteSpace=wrap;html=1;" parent="B7uklT9XOEuCtpNH9jRa-17" vertex="1">
          <mxGeometry x="400" y="220" width="130" height="25" as="geometry" />
        </mxCell>
        <mxCell id="B7uklT9XOEuCtpNH9jRa-58" value="&lt;font style=&quot;font-size: 9px;&quot;&gt;creaValutazioneCandidato&lt;/font&gt;" style="ellipse;whiteSpace=wrap;html=1;" parent="B7uklT9XOEuCtpNH9jRa-17" vertex="1">
          <mxGeometry x="400" y="150" width="130" height="25" as="geometry" />
        </mxCell>
        <mxCell id="B7uklT9XOEuCtpNH9jRa-57" value="&lt;font style=&quot;font-size: 9px;&quot;&gt;fissaColloquio&lt;/font&gt;" style="ellipse;whiteSpace=wrap;html=1;" parent="B7uklT9XOEuCtpNH9jRa-17" vertex="1">
          <mxGeometry x="327" y="184" width="130" height="25" as="geometry" />
        </mxCell>
        <mxCell id="B7uklT9XOEuCtpNH9jRa-59" value="" style="endArrow=none;html=1;rounded=0;fontSize=12;startSize=8;endSize=8;curved=1;exitX=1;exitY=0.5;exitDx=0;exitDy=0;" parent="B7uklT9XOEuCtpNH9jRa-17" source="B7uklT9XOEuCtpNH9jRa-57" edge="1">
          <mxGeometry width="50" height="50" relative="1" as="geometry">
            <mxPoint x="430" y="160" as="sourcePoint" />
            <mxPoint x="590" y="190" as="targetPoint" />
          </mxGeometry>
        </mxCell>
        <mxCell id="B7uklT9XOEuCtpNH9jRa-60" value="&lt;font style=&quot;font-size: 9px;&quot;&gt;visualizzaClassificaCompatibilita&lt;/font&gt;" style="ellipse;whiteSpace=wrap;html=1;" parent="B7uklT9XOEuCtpNH9jRa-17" vertex="1">
          <mxGeometry x="327" y="40" width="130" height="25" as="geometry" />
        </mxCell>
        <mxCell id="B7uklT9XOEuCtpNH9jRa-61" value="&lt;font style=&quot;font-size: 9px;&quot;&gt;GestioneCandidature&lt;/font&gt;" style="ellipse;whiteSpace=wrap;html=1;" parent="B7uklT9XOEuCtpNH9jRa-17" vertex="1">
          <mxGeometry x="410" y="105" width="130" height="25" as="geometry" />
        </mxCell>
        <mxCell id="B7uklT9XOEuCtpNH9jRa-62" value="&lt;font style=&quot;font-size: 9px;&quot;&gt;visualizzaOfferteAzienda&lt;/font&gt;" style="ellipse;whiteSpace=wrap;html=1;" parent="B7uklT9XOEuCtpNH9jRa-17" vertex="1">
          <mxGeometry x="410" y="10" width="130" height="25" as="geometry" />
        </mxCell>
        <mxCell id="B7uklT9XOEuCtpNH9jRa-65" value="&lt;font style=&quot;font-size: 9px;&quot;&gt;visualizzaProfiloCandidato&lt;/font&gt;" style="ellipse;whiteSpace=wrap;html=1;" parent="B7uklT9XOEuCtpNH9jRa-17" vertex="1">
          <mxGeometry x="410" y="70" width="130" height="25" as="geometry" />
        </mxCell>
        <mxCell id="B7uklT9XOEuCtpNH9jRa-66" value="" style="endArrow=block;dashed=1;endFill=0;endSize=5;html=1;rounded=0;fontSize=12;curved=1;exitX=0;exitY=0.5;exitDx=0;exitDy=0;entryX=0;entryY=0.5;entryDx=0;entryDy=0;strokeWidth=1;" parent="B7uklT9XOEuCtpNH9jRa-17" edge="1">
          <mxGeometry width="160" relative="1" as="geometry">
            <mxPoint x="410" y="80" as="sourcePoint" />
            <mxPoint x="410" y="115" as="targetPoint" />
          </mxGeometry>
        </mxCell>
        <mxCell id="B7uklT9XOEuCtpNH9jRa-67" value="&lt;font style=&quot;font-size: 6px;&quot;&gt;&amp;lt;&amp;lt;extend&amp;gt;&amp;gt;&lt;/font&gt;" style="edgeLabel;html=1;align=center;verticalAlign=middle;resizable=0;points=[];fontSize=12;" parent="B7uklT9XOEuCtpNH9jRa-66" vertex="1" connectable="0">
          <mxGeometry x="-0.5167" y="2" relative="1" as="geometry">
            <mxPoint x="-28" y="-6" as="offset" />
          </mxGeometry>
        </mxCell>
        <mxCell id="B7uklT9XOEuCtpNH9jRa-68" value="" style="endArrow=block;dashed=1;endFill=0;endSize=5;html=1;rounded=0;fontSize=12;curved=1;exitX=0.5;exitY=0;exitDx=0;exitDy=0;entryX=0;entryY=0.5;entryDx=0;entryDy=0;strokeWidth=1;" parent="B7uklT9XOEuCtpNH9jRa-17" source="B7uklT9XOEuCtpNH9jRa-60" target="B7uklT9XOEuCtpNH9jRa-62" edge="1">
          <mxGeometry width="160" relative="1" as="geometry">
            <mxPoint x="420" y="20" as="sourcePoint" />
            <mxPoint x="380" y="20" as="targetPoint" />
          </mxGeometry>
        </mxCell>
        <mxCell id="B7uklT9XOEuCtpNH9jRa-69" value="&lt;font style=&quot;font-size: 6px;&quot;&gt;&amp;lt;&amp;lt;extend&amp;gt;&amp;gt;&lt;/font&gt;" style="edgeLabel;html=1;align=center;verticalAlign=middle;resizable=0;points=[];fontSize=12;" parent="B7uklT9XOEuCtpNH9jRa-68" vertex="1" connectable="0">
          <mxGeometry x="-0.5167" y="2" relative="1" as="geometry">
            <mxPoint x="-27" y="-6" as="offset" />
          </mxGeometry>
        </mxCell>
        <mxCell id="B7uklT9XOEuCtpNH9jRa-70" value="" style="endArrow=block;dashed=1;endFill=0;endSize=5;html=1;rounded=0;fontSize=12;curved=1;exitX=0.438;exitY=-0.04;exitDx=0;exitDy=0;entryX=0.924;entryY=0.127;entryDx=0;entryDy=0;strokeWidth=1;entryPerimeter=0;exitPerimeter=0;" parent="B7uklT9XOEuCtpNH9jRa-17" source="B7uklT9XOEuCtpNH9jRa-58" edge="1">
          <mxGeometry width="160" relative="1" as="geometry">
            <mxPoint x="439" y="147" as="sourcePoint" />
            <mxPoint x="457" y="130" as="targetPoint" />
          </mxGeometry>
        </mxCell>
        <mxCell id="B7uklT9XOEuCtpNH9jRa-71" value="&lt;font style=&quot;font-size: 6px;&quot;&gt;&amp;lt;&amp;lt;extend&amp;gt;&amp;gt;&lt;/font&gt;" style="edgeLabel;html=1;align=center;verticalAlign=middle;resizable=0;points=[];fontSize=12;" parent="B7uklT9XOEuCtpNH9jRa-70" vertex="1" connectable="0">
          <mxGeometry x="-0.5167" y="2" relative="1" as="geometry">
            <mxPoint x="25" y="-4" as="offset" />
          </mxGeometry>
        </mxCell>
        <mxCell id="B7uklT9XOEuCtpNH9jRa-73" value="" style="endArrow=block;dashed=1;endFill=0;endSize=5;html=1;rounded=0;fontSize=12;curved=1;strokeWidth=1;entryX=0.411;entryY=0.063;entryDx=0;entryDy=0;entryPerimeter=0;strokeColor=default;exitX=0.41;exitY=-0.04;exitDx=0;exitDy=0;exitPerimeter=0;" parent="B7uklT9XOEuCtpNH9jRa-17" source="B7uklT9XOEuCtpNH9jRa-57" edge="1">
          <mxGeometry width="160" relative="1" as="geometry">
            <mxPoint x="400" y="120" as="sourcePoint" />
            <mxPoint x="410" y="120" as="targetPoint" />
          </mxGeometry>
        </mxCell>
        <mxCell id="B7uklT9XOEuCtpNH9jRa-74" value="&lt;font style=&quot;font-size: 6px;&quot;&gt;&amp;lt;&amp;lt;extend&amp;gt;&amp;gt;&lt;/font&gt;" style="edgeLabel;html=1;align=center;verticalAlign=middle;resizable=0;points=[];fontSize=12;" parent="B7uklT9XOEuCtpNH9jRa-73" vertex="1" connectable="0">
          <mxGeometry x="-0.5167" y="2" relative="1" as="geometry">
            <mxPoint x="-16" y="-9" as="offset" />
          </mxGeometry>
        </mxCell>
        <mxCell id="B7uklT9XOEuCtpNH9jRa-76" value="" style="endArrow=block;dashed=1;endFill=0;endSize=5;html=1;rounded=0;fontSize=12;curved=1;strokeWidth=1;entryX=0.348;entryY=0.943;entryDx=0;entryDy=0;entryPerimeter=0;strokeColor=default;exitX=0.348;exitY=0.943;exitDx=0;exitDy=0;exitPerimeter=0;" parent="B7uklT9XOEuCtpNH9jRa-17" source="B7uklT9XOEuCtpNH9jRa-57" edge="1">
          <mxGeometry width="160" relative="1" as="geometry">
            <mxPoint x="430" y="160" as="sourcePoint" />
            <mxPoint x="400" y="226" as="targetPoint" />
          </mxGeometry>
        </mxCell>
        <mxCell id="B7uklT9XOEuCtpNH9jRa-77" value="&lt;font style=&quot;font-size: 6px;&quot;&gt;&amp;lt;&amp;lt;extend&amp;gt;&amp;gt;&lt;/font&gt;" style="edgeLabel;html=1;align=center;verticalAlign=middle;resizable=0;points=[];fontSize=12;" parent="B7uklT9XOEuCtpNH9jRa-76" vertex="1" connectable="0">
          <mxGeometry x="-0.5167" y="2" relative="1" as="geometry">
            <mxPoint x="-22" y="6" as="offset" />
          </mxGeometry>
        </mxCell>
        <mxCell id="B7uklT9XOEuCtpNH9jRa-78" value="&lt;font style=&quot;font-size: 9px;&quot;&gt;loginAziendale&lt;/font&gt;" style="ellipse;whiteSpace=wrap;html=1;" parent="B7uklT9XOEuCtpNH9jRa-17" vertex="1">
          <mxGeometry x="462" y="42" width="80" height="20" as="geometry" />
        </mxCell>
        <mxCell id="B7uklT9XOEuCtpNH9jRa-79" value="&lt;font style=&quot;font-size: 9px;&quot;&gt;cambiaPassword&lt;/font&gt;" style="ellipse;whiteSpace=wrap;html=1;" parent="B7uklT9XOEuCtpNH9jRa-17" vertex="1">
          <mxGeometry x="30" y="5" width="130" height="30" as="geometry" />
        </mxCell>
        <mxCell id="B7uklT9XOEuCtpNH9jRa-1" value="&lt;font style=&quot;font-size: 9px;&quot;&gt;registrazioneUtenteCandidato&lt;/font&gt;" style="ellipse;whiteSpace=wrap;html=1;" parent="B7uklT9XOEuCtpNH9jRa-17" vertex="1">
          <mxGeometry x="17" y="44" width="130" height="30" as="geometry" />
        </mxCell>
        <mxCell id="B7uklT9XOEuCtpNH9jRa-84" value="" style="endArrow=none;html=1;rounded=0;fontSize=12;startSize=8;endSize=8;curved=1;exitX=1;exitY=0.5;exitDx=0;exitDy=0;" parent="B7uklT9XOEuCtpNH9jRa-17" edge="1">
          <mxGeometry width="50" height="50" relative="1" as="geometry">
            <mxPoint x="540" y="82.17000000000002" as="sourcePoint" />
            <mxPoint x="590" y="60" as="targetPoint" />
          </mxGeometry>
        </mxCell>
        <mxCell id="B7uklT9XOEuCtpNH9jRa-85" value="" style="endArrow=none;html=1;rounded=0;fontSize=12;startSize=8;endSize=8;curved=1;exitX=1;exitY=0.5;exitDx=0;exitDy=0;" parent="B7uklT9XOEuCtpNH9jRa-17" edge="1">
          <mxGeometry width="50" height="50" relative="1" as="geometry">
            <mxPoint x="530" y="117.17000000000002" as="sourcePoint" />
            <mxPoint x="590" y="60" as="targetPoint" />
          </mxGeometry>
        </mxCell>
        <mxCell id="B7uklT9XOEuCtpNH9jRa-86" value="" style="endArrow=none;html=1;rounded=0;fontSize=12;startSize=8;endSize=8;curved=1;exitX=1;exitY=0.5;exitDx=0;exitDy=0;" parent="B7uklT9XOEuCtpNH9jRa-17" edge="1">
          <mxGeometry width="50" height="50" relative="1" as="geometry">
            <mxPoint x="480" y="220" as="sourcePoint" />
            <mxPoint x="590" y="190" as="targetPoint" />
          </mxGeometry>
        </mxCell>
        <mxCell id="B7uklT9XOEuCtpNH9jRa-91" value="" style="endArrow=none;html=1;rounded=0;fontSize=12;startSize=8;endSize=8;curved=1;exitX=1;exitY=0.5;exitDx=0;exitDy=0;" parent="B7uklT9XOEuCtpNH9jRa-17" edge="1">
          <mxGeometry width="50" height="50" relative="1" as="geometry">
            <mxPoint x="530" y="393" as="sourcePoint" />
            <mxPoint x="590" y="340" as="targetPoint" />
          </mxGeometry>
        </mxCell>
        <mxCell id="B7uklT9XOEuCtpNH9jRa-20" value="" style="endArrow=none;html=1;rounded=0;fontSize=12;startSize=8;endSize=8;curved=1;entryX=0;entryY=0.5;entryDx=0;entryDy=0;" parent="1" target="B7uklT9XOEuCtpNH9jRa-1" edge="1">
          <mxGeometry width="50" height="50" relative="1" as="geometry">
            <mxPoint x="90" y="400" as="sourcePoint" />
            <mxPoint x="140" y="390" as="targetPoint" />
          </mxGeometry>
        </mxCell>
        <mxCell id="B7uklT9XOEuCtpNH9jRa-21" value="" style="endArrow=none;html=1;rounded=0;fontSize=12;startSize=8;endSize=8;curved=1;" parent="1" edge="1">
          <mxGeometry width="50" height="50" relative="1" as="geometry">
            <mxPoint x="110" y="410" as="sourcePoint" />
            <mxPoint x="160" y="370" as="targetPoint" />
          </mxGeometry>
        </mxCell>
        <mxCell id="B7uklT9XOEuCtpNH9jRa-22" value="" style="endArrow=none;html=1;rounded=0;fontSize=12;startSize=8;endSize=8;curved=1;entryX=0.015;entryY=0.417;entryDx=0;entryDy=0;entryPerimeter=0;" parent="1" target="B7uklT9XOEuCtpNH9jRa-17" edge="1">
          <mxGeometry width="50" height="50" relative="1" as="geometry">
            <mxPoint x="110" y="430" as="sourcePoint" />
            <mxPoint x="170" y="390" as="targetPoint" />
          </mxGeometry>
        </mxCell>
        <mxCell id="B7uklT9XOEuCtpNH9jRa-25" value="" style="endArrow=none;html=1;rounded=0;fontSize=12;startSize=8;endSize=8;curved=1;" parent="1" edge="1">
          <mxGeometry width="50" height="50" relative="1" as="geometry">
            <mxPoint x="110" y="440" as="sourcePoint" />
            <mxPoint x="160" y="460" as="targetPoint" />
          </mxGeometry>
        </mxCell>
        <mxCell id="B7uklT9XOEuCtpNH9jRa-27" value="" style="endArrow=none;html=1;rounded=0;fontSize=12;startSize=8;endSize=8;curved=1;" parent="1" edge="1">
          <mxGeometry width="50" height="50" relative="1" as="geometry">
            <mxPoint x="110" y="450" as="sourcePoint" />
            <mxPoint x="170" y="500" as="targetPoint" />
          </mxGeometry>
        </mxCell>
        <mxCell id="B7uklT9XOEuCtpNH9jRa-28" value="" style="endArrow=none;html=1;rounded=0;fontSize=12;startSize=8;endSize=8;curved=1;" parent="1" edge="1">
          <mxGeometry width="50" height="50" relative="1" as="geometry">
            <mxPoint x="100" y="500" as="sourcePoint" />
            <mxPoint x="160" y="550" as="targetPoint" />
          </mxGeometry>
        </mxCell>
        <mxCell id="B7uklT9XOEuCtpNH9jRa-29" value="" style="endArrow=none;html=1;rounded=0;fontSize=12;startSize=8;endSize=8;curved=1;" parent="1" edge="1">
          <mxGeometry width="50" height="50" relative="1" as="geometry">
            <mxPoint x="80" y="500" as="sourcePoint" />
            <mxPoint x="160" y="585" as="targetPoint" />
          </mxGeometry>
        </mxCell>
        <mxCell id="B7uklT9XOEuCtpNH9jRa-30" value="" style="endArrow=none;html=1;rounded=0;fontSize=12;startSize=8;endSize=8;curved=1;" parent="1" edge="1">
          <mxGeometry width="50" height="50" relative="1" as="geometry">
            <mxPoint x="70" y="510" as="sourcePoint" />
            <mxPoint x="160" y="627" as="targetPoint" />
          </mxGeometry>
        </mxCell>
        <mxCell id="B7uklT9XOEuCtpNH9jRa-32" value="" style="endArrow=block;dashed=1;endFill=0;endSize=5;html=1;rounded=0;fontSize=12;curved=1;exitX=0;exitY=0.5;exitDx=0;exitDy=0;entryX=1;entryY=0.5;entryDx=0;entryDy=0;strokeWidth=1;" parent="1" source="B7uklT9XOEuCtpNH9jRa-16" target="B7uklT9XOEuCtpNH9jRa-8" edge="1">
          <mxGeometry width="160" relative="1" as="geometry">
            <mxPoint x="350" y="440" as="sourcePoint" />
            <mxPoint x="190" y="440" as="targetPoint" />
          </mxGeometry>
        </mxCell>
        <mxCell id="B7uklT9XOEuCtpNH9jRa-33" value="&lt;font style=&quot;font-size: 6px;&quot;&gt;&amp;lt;&amp;lt;extend&amp;gt;&amp;gt;&lt;/font&gt;" style="edgeLabel;html=1;align=center;verticalAlign=middle;resizable=0;points=[];fontSize=12;" parent="B7uklT9XOEuCtpNH9jRa-32" vertex="1" connectable="0">
          <mxGeometry x="-0.5167" y="2" relative="1" as="geometry">
            <mxPoint x="-10" y="10" as="offset" />
          </mxGeometry>
        </mxCell>
        <mxCell id="B7uklT9XOEuCtpNH9jRa-42" value="" style="endArrow=block;dashed=1;endFill=0;endSize=5;html=1;rounded=0;fontSize=12;curved=1;entryX=0;entryY=0.5;entryDx=0;entryDy=0;strokeWidth=1;exitX=0.708;exitY=1.029;exitDx=0;exitDy=0;exitPerimeter=0;" parent="1" source="B7uklT9XOEuCtpNH9jRa-4" target="B7uklT9XOEuCtpNH9jRa-7" edge="1">
          <mxGeometry width="160" relative="1" as="geometry">
            <mxPoint x="300" y="370" as="sourcePoint" />
            <mxPoint x="405" y="373" as="targetPoint" />
          </mxGeometry>
        </mxCell>
        <mxCell id="B7uklT9XOEuCtpNH9jRa-43" value="&lt;font style=&quot;font-size: 6px;&quot;&gt;&amp;lt;&amp;lt;include&amp;gt;&amp;gt;&lt;/font&gt;" style="edgeLabel;html=1;align=center;verticalAlign=middle;resizable=0;points=[];fontSize=12;" parent="B7uklT9XOEuCtpNH9jRa-42" vertex="1" connectable="0">
          <mxGeometry x="-0.5167" y="2" relative="1" as="geometry">
            <mxPoint x="29" y="-2" as="offset" />
          </mxGeometry>
        </mxCell>
        <mxCell id="B7uklT9XOEuCtpNH9jRa-38" value="" style="endArrow=block;dashed=1;endFill=0;endSize=5;html=1;rounded=0;fontSize=12;curved=1;entryX=0;entryY=0.5;entryDx=0;entryDy=0;strokeWidth=1;exitX=0.703;exitY=0.023;exitDx=0;exitDy=0;exitPerimeter=0;" parent="1" source="B7uklT9XOEuCtpNH9jRa-4" target="B7uklT9XOEuCtpNH9jRa-5" edge="1">
          <mxGeometry width="160" relative="1" as="geometry">
            <mxPoint x="290" y="370" as="sourcePoint" />
            <mxPoint x="330" y="370" as="targetPoint" />
          </mxGeometry>
        </mxCell>
        <mxCell id="B7uklT9XOEuCtpNH9jRa-39" value="&lt;font style=&quot;font-size: 6px;&quot;&gt;&amp;lt;&amp;lt;include&amp;gt;&amp;gt;&lt;/font&gt;" style="edgeLabel;html=1;align=center;verticalAlign=middle;resizable=0;points=[];fontSize=12;" parent="B7uklT9XOEuCtpNH9jRa-38" vertex="1" connectable="0">
          <mxGeometry x="-0.5167" y="2" relative="1" as="geometry">
            <mxPoint x="8" y="-7" as="offset" />
          </mxGeometry>
        </mxCell>
        <mxCell id="B7uklT9XOEuCtpNH9jRa-45" value="" style="endArrow=block;dashed=1;endFill=0;endSize=5;html=1;rounded=0;fontSize=12;curved=1;strokeWidth=1;exitX=1;exitY=0.5;exitDx=0;exitDy=0;" parent="1" source="B7uklT9XOEuCtpNH9jRa-4" edge="1">
          <mxGeometry width="160" relative="1" as="geometry">
            <mxPoint x="270" y="380" as="sourcePoint" />
            <mxPoint x="330" y="360" as="targetPoint" />
          </mxGeometry>
        </mxCell>
        <mxCell id="B7uklT9XOEuCtpNH9jRa-46" value="&lt;font style=&quot;font-size: 6px;&quot;&gt;&amp;lt;&amp;lt;include&amp;gt;&amp;gt;&lt;/font&gt;" style="edgeLabel;html=1;align=center;verticalAlign=middle;resizable=0;points=[];fontSize=12;" parent="B7uklT9XOEuCtpNH9jRa-45" vertex="1" connectable="0">
          <mxGeometry x="-0.5167" y="2" relative="1" as="geometry">
            <mxPoint x="1" y="-9" as="offset" />
          </mxGeometry>
        </mxCell>
        <mxCell id="B7uklT9XOEuCtpNH9jRa-92" style="edgeStyle=none;curved=1;rounded=0;orthogonalLoop=1;jettySize=auto;html=1;fontSize=12;startSize=8;endSize=8;" parent="1" source="B7uklT9XOEuCtpNH9jRa-48" edge="1">
          <mxGeometry relative="1" as="geometry">
            <mxPoint x="765" y="500" as="targetPoint" />
          </mxGeometry>
        </mxCell>
        <mxCell id="B7uklT9XOEuCtpNH9jRa-48" value="Referente Aziendale" style="shape=umlActor;verticalLabelPosition=bottom;verticalAlign=top;html=1;outlineConnect=0;" parent="1" vertex="1">
          <mxGeometry x="750" y="585" width="30" height="60" as="geometry" />
        </mxCell>
        <mxCell id="B7uklT9XOEuCtpNH9jRa-93" style="edgeStyle=none;curved=1;rounded=0;orthogonalLoop=1;jettySize=auto;html=1;fontSize=12;startSize=8;endSize=8;" parent="1" source="B7uklT9XOEuCtpNH9jRa-49" edge="1">
          <mxGeometry relative="1" as="geometry">
            <mxPoint x="765" y="360" as="targetPoint" />
          </mxGeometry>
        </mxCell>
        <mxCell id="B7uklT9XOEuCtpNH9jRa-49" value="Amministratore&amp;nbsp;&lt;div&gt;Aziendale&lt;/div&gt;" style="shape=umlActor;verticalLabelPosition=bottom;verticalAlign=top;html=1;outlineConnect=0;" parent="1" vertex="1">
          <mxGeometry x="750" y="400" width="30" height="60" as="geometry" />
        </mxCell>
        <mxCell id="B7uklT9XOEuCtpNH9jRa-50" value="Ordinario&lt;div&gt;Aziendale&lt;/div&gt;" style="shape=umlActor;verticalLabelPosition=bottom;verticalAlign=top;html=1;outlineConnect=0;" parent="1" vertex="1">
          <mxGeometry x="750" y="260" width="30" height="60" as="geometry" />
        </mxCell>
        <mxCell id="B7uklT9XOEuCtpNH9jRa-72" value="" style="endArrow=none;html=1;rounded=0;fontSize=12;startSize=8;endSize=8;curved=1;exitX=1;exitY=0.5;exitDx=0;exitDy=0;" parent="1" edge="1">
          <mxGeometry width="50" height="50" relative="1" as="geometry">
            <mxPoint x="680" y="429.91999999999996" as="sourcePoint" />
            <mxPoint x="740" y="450" as="targetPoint" />
          </mxGeometry>
        </mxCell>
        <mxCell id="B7uklT9XOEuCtpNH9jRa-36" value="" style="endArrow=block;dashed=1;endFill=0;endSize=5;html=1;rounded=0;fontSize=12;curved=1;exitX=0.046;exitY=0.349;exitDx=0;exitDy=0;entryX=0.046;entryY=0.349;entryDx=0;entryDy=0;strokeWidth=1;entryPerimeter=0;exitPerimeter=0;" parent="1" source="B7uklT9XOEuCtpNH9jRa-11" edge="1">
          <mxGeometry width="160" relative="1" as="geometry">
            <mxPoint x="330" y="480" as="sourcePoint" />
            <mxPoint x="290" y="480" as="targetPoint" />
          </mxGeometry>
        </mxCell>
        <mxCell id="B7uklT9XOEuCtpNH9jRa-37" value="&lt;font style=&quot;font-size: 6px;&quot;&gt;&amp;lt;&amp;lt;extend&amp;gt;&amp;gt;&lt;/font&gt;" style="edgeLabel;html=1;align=center;verticalAlign=middle;resizable=0;points=[];fontSize=12;" parent="B7uklT9XOEuCtpNH9jRa-36" vertex="1" connectable="0">
          <mxGeometry x="-0.5167" y="2" relative="1" as="geometry">
            <mxPoint x="13" y="-13" as="offset" />
          </mxGeometry>
        </mxCell>
        <mxCell id="B7uklT9XOEuCtpNH9jRa-80" value="" style="endArrow=none;html=1;rounded=0;fontSize=12;startSize=8;endSize=8;curved=1;entryX=0;entryY=0.5;entryDx=0;entryDy=0;" parent="1" target="B7uklT9XOEuCtpNH9jRa-79" edge="1">
          <mxGeometry width="50" height="50" relative="1" as="geometry">
            <mxPoint x="70" y="400" as="sourcePoint" />
            <mxPoint x="140" y="295" as="targetPoint" />
          </mxGeometry>
        </mxCell>
        <mxCell id="B7uklT9XOEuCtpNH9jRa-81" value="" style="endArrow=none;html=1;rounded=0;fontSize=12;startSize=8;endSize=8;curved=1;exitX=1;exitY=0.5;exitDx=0;exitDy=0;" parent="1" source="B7uklT9XOEuCtpNH9jRa-78" edge="1">
          <mxGeometry width="50" height="50" relative="1" as="geometry">
            <mxPoint x="630" y="240" as="sourcePoint" />
            <mxPoint x="740" y="320" as="targetPoint" />
          </mxGeometry>
        </mxCell>
        <mxCell id="B7uklT9XOEuCtpNH9jRa-82" value="" style="endArrow=none;html=1;rounded=0;fontSize=12;startSize=8;endSize=8;curved=1;exitX=1;exitY=0.5;exitDx=0;exitDy=0;" parent="1" source="B7uklT9XOEuCtpNH9jRa-62" edge="1">
          <mxGeometry width="50" height="50" relative="1" as="geometry">
            <mxPoint x="702" y="289.58" as="sourcePoint" />
            <mxPoint x="740" y="320" as="targetPoint" />
          </mxGeometry>
        </mxCell>
        <mxCell id="B7uklT9XOEuCtpNH9jRa-83" value="" style="endArrow=none;html=1;rounded=0;fontSize=12;startSize=8;endSize=8;curved=1;exitX=0.923;exitY=0.167;exitDx=0;exitDy=0;exitPerimeter=0;" parent="1" source="B7uklT9XOEuCtpNH9jRa-79" edge="1">
          <mxGeometry width="50" height="50" relative="1" as="geometry">
            <mxPoint x="690" y="270" as="sourcePoint" />
            <mxPoint x="740" y="265" as="targetPoint" />
          </mxGeometry>
        </mxCell>
        <mxCell id="B7uklT9XOEuCtpNH9jRa-87" value="" style="endArrow=none;html=1;rounded=0;fontSize=12;startSize=8;endSize=8;curved=1;exitX=1;exitY=0.5;exitDx=0;exitDy=0;" parent="1" source="B7uklT9XOEuCtpNH9jRa-55" edge="1">
          <mxGeometry width="50" height="50" relative="1" as="geometry">
            <mxPoint x="680" y="490" as="sourcePoint" />
            <mxPoint x="740" y="450" as="targetPoint" />
          </mxGeometry>
        </mxCell>
        <mxCell id="B7uklT9XOEuCtpNH9jRa-88" value="" style="endArrow=none;html=1;rounded=0;fontSize=12;startSize=8;endSize=8;curved=1;exitX=1;exitY=0.5;exitDx=0;exitDy=0;" parent="1" source="B7uklT9XOEuCtpNH9jRa-51" edge="1">
          <mxGeometry width="50" height="50" relative="1" as="geometry">
            <mxPoint x="710" y="600" as="sourcePoint" />
            <mxPoint x="740" y="600" as="targetPoint" />
          </mxGeometry>
        </mxCell>
        <mxCell id="B7uklT9XOEuCtpNH9jRa-89" value="" style="endArrow=none;html=1;rounded=0;fontSize=12;startSize=8;endSize=8;curved=1;exitX=1;exitY=0.5;exitDx=0;exitDy=0;" parent="1" source="B7uklT9XOEuCtpNH9jRa-52" edge="1">
          <mxGeometry width="50" height="50" relative="1" as="geometry">
            <mxPoint x="730" y="600" as="sourcePoint" />
            <mxPoint x="740" y="600" as="targetPoint" />
          </mxGeometry>
        </mxCell>
        <mxCell id="B7uklT9XOEuCtpNH9jRa-90" value="" style="endArrow=none;html=1;rounded=0;fontSize=12;startSize=8;endSize=8;curved=1;exitX=1;exitY=0.5;exitDx=0;exitDy=0;" parent="1" source="B7uklT9XOEuCtpNH9jRa-53" edge="1">
          <mxGeometry width="50" height="50" relative="1" as="geometry">
            <mxPoint x="740" y="610" as="sourcePoint" />
            <mxPoint x="740" y="600" as="targetPoint" />
          </mxGeometry>
        </mxCell>
      </root>
    </mxGraphModel>
  </diagram>
  <diagram id="NkBCGvh-_LmoA3KxvFQP" name="Pagina-2">
    <mxGraphModel dx="1449" dy="1536" grid="0" gridSize="10" guides="1" tooltips="1" connect="1" arrows="1" fold="1" page="0" pageScale="1" pageWidth="827" pageHeight="1169" math="0" shadow="0">
      <root>
        <mxCell id="0" />
        <mxCell id="1" parent="0" />
        <mxCell id="myrmlAlP4ux7vquSgFjX-23" value="" style="rounded=0;whiteSpace=wrap;html=1;" vertex="1" parent="1">
          <mxGeometry x="-402" y="252" width="1244" height="190" as="geometry" />
        </mxCell>
        <mxCell id="myrmlAlP4ux7vquSgFjX-26" style="edgeStyle=none;curved=1;rounded=0;orthogonalLoop=1;jettySize=auto;html=1;fontSize=12;startSize=8;endSize=8;" edge="1" parent="1">
          <mxGeometry relative="1" as="geometry">
            <mxPoint x="759" y="176" as="targetPoint" />
            <mxPoint x="55" y="176" as="sourcePoint" />
          </mxGeometry>
        </mxCell>
        <mxCell id="myrmlAlP4ux7vquSgFjX-27" value="Controlla Presenza Email" style="edgeLabel;html=1;align=center;verticalAlign=middle;resizable=0;points=[];fontSize=12;" vertex="1" connectable="0" parent="myrmlAlP4ux7vquSgFjX-26">
          <mxGeometry x="0.1402" relative="1" as="geometry">
            <mxPoint x="134" y="-1" as="offset" />
          </mxGeometry>
        </mxCell>
        <mxCell id="myrmlAlP4ux7vquSgFjX-30" value="" style="rounded=0;whiteSpace=wrap;html=1;" vertex="1" parent="1">
          <mxGeometry x="759.5" y="164" width="27" height="79" as="geometry" />
        </mxCell>
        <mxCell id="myrmlAlP4ux7vquSgFjX-28" value="" style="rounded=0;whiteSpace=wrap;html=1;" vertex="1" parent="1">
          <mxGeometry x="411" y="112" width="27" height="102" as="geometry" />
        </mxCell>
        <mxCell id="myrmlAlP4ux7vquSgFjX-1" value="Candidato" style="shape=umlActor;verticalLabelPosition=bottom;verticalAlign=top;html=1;outlineConnect=0;" vertex="1" parent="1">
          <mxGeometry x="-312" y="-142" width="30" height="60" as="geometry" />
        </mxCell>
        <mxCell id="myrmlAlP4ux7vquSgFjX-2" value="Sistema" style="rounded=0;whiteSpace=wrap;html=1;" vertex="1" parent="1">
          <mxGeometry x="364.5" y="-126" width="120" height="60" as="geometry" />
        </mxCell>
        <mxCell id="myrmlAlP4ux7vquSgFjX-3" value="Database" style="rounded=0;whiteSpace=wrap;html=1;" vertex="1" parent="1">
          <mxGeometry x="713" y="-126" width="120" height="60" as="geometry" />
        </mxCell>
        <mxCell id="myrmlAlP4ux7vquSgFjX-5" value="" style="endArrow=none;dashed=1;html=1;rounded=0;fontSize=12;startSize=8;endSize=8;curved=1;" edge="1" parent="1" source="myrmlAlP4ux7vquSgFjX-8">
          <mxGeometry width="50" height="50" relative="1" as="geometry">
            <mxPoint x="-296" y="552" as="sourcePoint" />
            <mxPoint x="-298" y="-52" as="targetPoint" />
          </mxGeometry>
        </mxCell>
        <mxCell id="myrmlAlP4ux7vquSgFjX-6" value="" style="endArrow=none;dashed=1;html=1;rounded=0;fontSize=12;startSize=8;endSize=8;curved=1;" edge="1" parent="1" source="myrmlAlP4ux7vquSgFjX-28">
          <mxGeometry width="50" height="50" relative="1" as="geometry">
            <mxPoint x="422" y="567" as="sourcePoint" />
            <mxPoint x="425" y="-62" as="targetPoint" />
          </mxGeometry>
        </mxCell>
        <mxCell id="myrmlAlP4ux7vquSgFjX-20" value="" style="rounded=0;whiteSpace=wrap;html=1;" vertex="1" parent="1">
          <mxGeometry x="24.5" y="-20" width="27" height="509" as="geometry" />
        </mxCell>
        <mxCell id="myrmlAlP4ux7vquSgFjX-7" value="" style="endArrow=none;dashed=1;html=1;rounded=0;fontSize=12;startSize=8;endSize=8;curved=1;" edge="1" parent="1" source="myrmlAlP4ux7vquSgFjX-30">
          <mxGeometry width="50" height="50" relative="1" as="geometry">
            <mxPoint x="774" y="567" as="sourcePoint" />
            <mxPoint x="772" y="-66" as="targetPoint" />
          </mxGeometry>
        </mxCell>
        <mxCell id="myrmlAlP4ux7vquSgFjX-9" value="" style="endArrow=none;dashed=1;html=1;rounded=0;fontSize=12;startSize=8;endSize=8;curved=1;" edge="1" parent="1" target="myrmlAlP4ux7vquSgFjX-8">
          <mxGeometry width="50" height="50" relative="1" as="geometry">
            <mxPoint x="-296" y="552" as="sourcePoint" />
            <mxPoint x="-298" y="-52" as="targetPoint" />
          </mxGeometry>
        </mxCell>
        <mxCell id="myrmlAlP4ux7vquSgFjX-12" style="edgeStyle=none;curved=1;rounded=0;orthogonalLoop=1;jettySize=auto;html=1;fontSize=12;startSize=8;endSize=8;" edge="1" parent="1">
          <mxGeometry relative="1" as="geometry">
            <mxPoint x="17" y="-3" as="targetPoint" />
            <mxPoint x="-284" y="-3" as="sourcePoint" />
          </mxGeometry>
        </mxCell>
        <mxCell id="myrmlAlP4ux7vquSgFjX-13" value="Seleziona &#39;Registrati&#39;" style="edgeLabel;html=1;align=center;verticalAlign=middle;resizable=0;points=[];fontSize=12;" vertex="1" connectable="0" parent="myrmlAlP4ux7vquSgFjX-12">
          <mxGeometry x="0.1402" relative="1" as="geometry">
            <mxPoint x="-21" as="offset" />
          </mxGeometry>
        </mxCell>
        <mxCell id="myrmlAlP4ux7vquSgFjX-8" value="" style="rounded=0;whiteSpace=wrap;html=1;" vertex="1" parent="1">
          <mxGeometry x="-310" y="-37" width="22" height="160" as="geometry" />
        </mxCell>
        <mxCell id="myrmlAlP4ux7vquSgFjX-10" value="Pagina Web" style="rounded=0;whiteSpace=wrap;html=1;" vertex="1" parent="1">
          <mxGeometry x="-22" y="-126" width="120" height="60" as="geometry" />
        </mxCell>
        <mxCell id="myrmlAlP4ux7vquSgFjX-11" value="" style="endArrow=none;dashed=1;html=1;rounded=0;fontSize=12;startSize=8;endSize=8;curved=1;" edge="1" parent="1" source="myrmlAlP4ux7vquSgFjX-20">
          <mxGeometry width="50" height="50" relative="1" as="geometry">
            <mxPoint x="39" y="567" as="sourcePoint" />
            <mxPoint x="37" y="-66" as="targetPoint" />
          </mxGeometry>
        </mxCell>
        <mxCell id="myrmlAlP4ux7vquSgFjX-16" style="edgeStyle=none;curved=1;rounded=0;orthogonalLoop=1;jettySize=auto;html=1;fontSize=12;dashed=1;endArrow=open;endFill=0;" edge="1" parent="1">
          <mxGeometry relative="1" as="geometry">
            <mxPoint x="-279" y="54" as="targetPoint" />
            <mxPoint x="25" y="54" as="sourcePoint" />
          </mxGeometry>
        </mxCell>
        <mxCell id="myrmlAlP4ux7vquSgFjX-17" value="Mostra Form di Registrazione" style="edgeLabel;html=1;align=center;verticalAlign=middle;resizable=0;points=[];fontSize=12;" vertex="1" connectable="0" parent="myrmlAlP4ux7vquSgFjX-16">
          <mxGeometry x="0.1402" relative="1" as="geometry">
            <mxPoint x="16" y="-1" as="offset" />
          </mxGeometry>
        </mxCell>
        <mxCell id="myrmlAlP4ux7vquSgFjX-18" style="edgeStyle=none;curved=1;rounded=0;orthogonalLoop=1;jettySize=auto;html=1;fontSize=12;startSize=8;endSize=8;" edge="1" parent="1">
          <mxGeometry relative="1" as="geometry">
            <mxPoint x="20" y="111" as="targetPoint" />
            <mxPoint x="-282" y="111" as="sourcePoint" />
          </mxGeometry>
        </mxCell>
        <mxCell id="myrmlAlP4ux7vquSgFjX-19" value="Inserisci Dati Anagrafici&lt;div&gt;Inserisce Credenziali&lt;/div&gt;" style="edgeLabel;html=1;align=center;verticalAlign=middle;resizable=0;points=[];fontSize=12;" vertex="1" connectable="0" parent="myrmlAlP4ux7vquSgFjX-18">
          <mxGeometry x="0.1402" relative="1" as="geometry">
            <mxPoint x="-26" y="-1" as="offset" />
          </mxGeometry>
        </mxCell>
        <mxCell id="myrmlAlP4ux7vquSgFjX-21" value="" style="endArrow=none;dashed=1;html=1;rounded=0;fontSize=12;startSize=8;endSize=8;curved=1;" edge="1" parent="1" target="myrmlAlP4ux7vquSgFjX-20">
          <mxGeometry width="50" height="50" relative="1" as="geometry">
            <mxPoint x="39" y="567" as="sourcePoint" />
            <mxPoint x="37" y="-66" as="targetPoint" />
          </mxGeometry>
        </mxCell>
        <mxCell id="myrmlAlP4ux7vquSgFjX-24" style="edgeStyle=none;curved=1;rounded=0;orthogonalLoop=1;jettySize=auto;html=1;fontSize=12;startSize=8;endSize=8;" edge="1" parent="1">
          <mxGeometry relative="1" as="geometry">
            <mxPoint x="407" y="150" as="targetPoint" />
            <mxPoint x="49" y="150" as="sourcePoint" />
          </mxGeometry>
        </mxCell>
        <mxCell id="myrmlAlP4ux7vquSgFjX-25" value="Controlla Sicurezza Password" style="edgeLabel;html=1;align=center;verticalAlign=middle;resizable=0;points=[];fontSize=12;" vertex="1" connectable="0" parent="myrmlAlP4ux7vquSgFjX-24">
          <mxGeometry x="0.1402" relative="1" as="geometry">
            <mxPoint x="-35" y="-1" as="offset" />
          </mxGeometry>
        </mxCell>
        <mxCell id="myrmlAlP4ux7vquSgFjX-29" value="" style="endArrow=none;dashed=1;html=1;rounded=0;fontSize=12;startSize=8;endSize=8;curved=1;" edge="1" parent="1" target="myrmlAlP4ux7vquSgFjX-28">
          <mxGeometry width="50" height="50" relative="1" as="geometry">
            <mxPoint x="422" y="567" as="sourcePoint" />
            <mxPoint x="420" y="-66" as="targetPoint" />
          </mxGeometry>
        </mxCell>
        <mxCell id="myrmlAlP4ux7vquSgFjX-31" value="" style="endArrow=none;dashed=1;html=1;rounded=0;fontSize=12;startSize=8;endSize=8;curved=1;" edge="1" parent="1" source="myrmlAlP4ux7vquSgFjX-43" target="myrmlAlP4ux7vquSgFjX-30">
          <mxGeometry width="50" height="50" relative="1" as="geometry">
            <mxPoint x="774" y="567" as="sourcePoint" />
            <mxPoint x="772" y="-66" as="targetPoint" />
          </mxGeometry>
        </mxCell>
        <mxCell id="myrmlAlP4ux7vquSgFjX-32" style="edgeStyle=none;curved=1;rounded=0;orthogonalLoop=1;jettySize=auto;html=1;fontSize=12;dashed=1;endArrow=open;endFill=0;" edge="1" parent="1">
          <mxGeometry relative="1" as="geometry">
            <mxPoint x="56" y="199" as="targetPoint" />
            <mxPoint x="407" y="199" as="sourcePoint" />
          </mxGeometry>
        </mxCell>
        <mxCell id="myrmlAlP4ux7vquSgFjX-33" value="Risultato sicurezza password" style="edgeLabel;html=1;align=center;verticalAlign=middle;resizable=0;points=[];fontSize=12;" vertex="1" connectable="0" parent="myrmlAlP4ux7vquSgFjX-32">
          <mxGeometry x="0.1402" relative="1" as="geometry">
            <mxPoint x="16" y="-1" as="offset" />
          </mxGeometry>
        </mxCell>
        <mxCell id="myrmlAlP4ux7vquSgFjX-34" style="edgeStyle=none;curved=1;rounded=0;orthogonalLoop=1;jettySize=auto;html=1;fontSize=12;dashed=1;endArrow=open;endFill=0;" edge="1" parent="1">
          <mxGeometry relative="1" as="geometry">
            <mxPoint x="61" y="227" as="targetPoint" />
            <mxPoint x="759.5" y="227" as="sourcePoint" />
          </mxGeometry>
        </mxCell>
        <mxCell id="myrmlAlP4ux7vquSgFjX-35" value="Risultato presenza email" style="edgeLabel;html=1;align=center;verticalAlign=middle;resizable=0;points=[];fontSize=12;" vertex="1" connectable="0" parent="myrmlAlP4ux7vquSgFjX-34">
          <mxGeometry x="0.1402" relative="1" as="geometry">
            <mxPoint x="-143" y="-1" as="offset" />
          </mxGeometry>
        </mxCell>
        <mxCell id="myrmlAlP4ux7vquSgFjX-36" value="alt" style="rounded=0;whiteSpace=wrap;html=1;" vertex="1" parent="1">
          <mxGeometry x="-402" y="252" width="31" height="19" as="geometry" />
        </mxCell>
        <mxCell id="myrmlAlP4ux7vquSgFjX-38" value="&lt;font&gt;[Email già presente&amp;nbsp;&lt;/font&gt;&lt;div&gt;&lt;font&gt;o password non sicura]&lt;/font&gt;&lt;/div&gt;" style="text;html=1;align=center;verticalAlign=middle;resizable=0;points=[];autosize=1;strokeColor=none;fillColor=none;fontSize=7;" vertex="1" parent="1">
          <mxGeometry x="-400" y="350" width="90" height="28" as="geometry" />
        </mxCell>
        <mxCell id="myrmlAlP4ux7vquSgFjX-43" value="" style="rounded=0;whiteSpace=wrap;html=1;" vertex="1" parent="1">
          <mxGeometry x="759.5" y="274" width="27" height="35" as="geometry" />
        </mxCell>
        <mxCell id="myrmlAlP4ux7vquSgFjX-39" style="edgeStyle=none;curved=1;rounded=0;orthogonalLoop=1;jettySize=auto;html=1;fontSize=12;startSize=8;endSize=8;" edge="1" parent="1">
          <mxGeometry relative="1" as="geometry">
            <mxPoint x="758" y="298" as="targetPoint" />
            <mxPoint x="424" y="301" as="sourcePoint" />
          </mxGeometry>
        </mxCell>
        <mxCell id="myrmlAlP4ux7vquSgFjX-40" value="Registrati(Email,Password,Nome,Cognome,&lt;div&gt;Citta,Provincia,Nazione&lt;/div&gt;" style="edgeLabel;html=1;align=center;verticalAlign=middle;resizable=0;points=[];fontSize=12;" vertex="1" connectable="0" parent="myrmlAlP4ux7vquSgFjX-39">
          <mxGeometry x="0.1402" relative="1" as="geometry">
            <mxPoint x="-35" y="-1" as="offset" />
          </mxGeometry>
        </mxCell>
        <mxCell id="myrmlAlP4ux7vquSgFjX-41" value="&lt;font&gt;[Email non presente&amp;nbsp;&lt;/font&gt;&lt;div&gt;&lt;font&gt;e password sicura]&lt;/font&gt;&lt;/div&gt;" style="text;html=1;align=center;verticalAlign=middle;resizable=0;points=[];autosize=1;strokeColor=none;fillColor=none;fontSize=7;" vertex="1" parent="1">
          <mxGeometry x="-398" y="271" width="82" height="28" as="geometry" />
        </mxCell>
        <mxCell id="myrmlAlP4ux7vquSgFjX-42" value="" style="endArrow=none;dashed=1;html=1;dashPattern=1 3;strokeWidth=2;rounded=0;fontSize=12;startSize=8;endSize=8;curved=1;" edge="1" parent="1">
          <mxGeometry width="50" height="50" relative="1" as="geometry">
            <mxPoint x="-495" y="340" as="sourcePoint" />
            <mxPoint x="990" y="335" as="targetPoint" />
          </mxGeometry>
        </mxCell>
        <mxCell id="myrmlAlP4ux7vquSgFjX-44" value="" style="endArrow=none;dashed=1;html=1;rounded=0;fontSize=12;startSize=8;endSize=8;curved=1;" edge="1" parent="1" target="myrmlAlP4ux7vquSgFjX-43">
          <mxGeometry width="50" height="50" relative="1" as="geometry">
            <mxPoint x="774" y="567" as="sourcePoint" />
            <mxPoint x="773" y="243" as="targetPoint" />
          </mxGeometry>
        </mxCell>
        <mxCell id="myrmlAlP4ux7vquSgFjX-47" style="edgeStyle=none;curved=1;rounded=0;orthogonalLoop=1;jettySize=auto;html=1;fontSize=12;startSize=8;endSize=8;" edge="1" parent="1">
          <mxGeometry relative="1" as="geometry">
            <mxPoint x="418" y="274" as="targetPoint" />
            <mxPoint x="57" y="274" as="sourcePoint" />
          </mxGeometry>
        </mxCell>
        <mxCell id="myrmlAlP4ux7vquSgFjX-48" value="Fornisci Dati Anagrafici e Credenziali" style="edgeLabel;html=1;align=center;verticalAlign=middle;resizable=0;points=[];fontSize=12;" vertex="1" connectable="0" parent="myrmlAlP4ux7vquSgFjX-47">
          <mxGeometry x="0.1402" relative="1" as="geometry">
            <mxPoint x="-35" y="-1" as="offset" />
          </mxGeometry>
        </mxCell>
        <mxCell id="myrmlAlP4ux7vquSgFjX-49" value="Text" style="edgeLabel;html=1;align=center;verticalAlign=middle;resizable=0;points=[];fontSize=12;" vertex="1" connectable="0" parent="myrmlAlP4ux7vquSgFjX-47">
          <mxGeometry x="-0.0236" y="2" relative="1" as="geometry">
            <mxPoint as="offset" />
          </mxGeometry>
        </mxCell>
        <mxCell id="myrmlAlP4ux7vquSgFjX-52" style="edgeStyle=none;curved=1;rounded=0;orthogonalLoop=1;jettySize=auto;html=1;fontSize=12;dashed=1;endArrow=open;endFill=0;" edge="1" parent="1">
          <mxGeometry relative="1" as="geometry">
            <mxPoint x="-299" y="394" as="targetPoint" />
            <mxPoint x="24.5" y="394" as="sourcePoint" />
          </mxGeometry>
        </mxCell>
        <mxCell id="myrmlAlP4ux7vquSgFjX-53" value="Mostra Messaggio di Errore" style="edgeLabel;html=1;align=center;verticalAlign=middle;resizable=0;points=[];fontSize=12;" vertex="1" connectable="0" parent="myrmlAlP4ux7vquSgFjX-52">
          <mxGeometry x="0.1402" relative="1" as="geometry">
            <mxPoint x="16" y="-1" as="offset" />
          </mxGeometry>
        </mxCell>
      </root>
    </mxGraphModel>
  </diagram>
</mxfile>
